<svg class="svg-icon" style="width: 1.3330078125em;height: 1em;vertical-align: middle;fill: currentColor;overflow: hidden;" viewBox="0 0 1365 1024" version="1.1" xmlns="http://www.w3.org/2000/svg"><path d="M853.455644 0a47.786667 47.786667 0 1 0 0 96.142222 415.857778 415.857778 0 0 1 0 832.284445 47.786667 47.786667 0 1 0 0 95.573333 512 512 0 0 0 0-1024z m0 714.524444a47.786667 47.786667 0 1 0 0 96.142223 298.666667 298.666667 0 0 0 0-597.333334 47.786667 47.786667 0 1 0 0 96.142223 202.524444 202.524444 0 0 1 0 405.617777z m-256 130.844445L341.455644 671.857778H96.264533V352.142222H341.455644l254.293334-170.666666z m21.617778-796.444445L308.460089 256h-221.866667A91.591111 91.591111 0 0 0 0.122311 352.142222v320.284445a91.591111 91.591111 0 0 0 86.471111 95.573333h221.866667l311.182222 206.506667c40.96 27.306667 74.524444 6.257778 74.524445-46.648889V96.142222c-0.568889-53.475556-34.133333-73.955556-75.093334-46.648889z" fill="#5E5C5C" /></svg>